<svg viewBox="0 0 400 400" xmlns="http://www.w3.org/2000/svg">
  <!-- Location Pin Shape -->
  <path d="M200,30 C140,30 90,80 90,140 C90,230 200,370 200,370 C200,370 310,230 310,140 C310,80 260,30 200,30 Z" fill="#0A3A5A" />
  
  <!-- Sunset/Sky Gradient -->
  <path d="M200,50 C145,50 110,95 110,150 C110,210 170,300 200,340 C230,300 290,210 290,150 C290,95 255,50 200,50 Z" fill="#FFA500">
    <animate attributeName="fill" values="#FFA500;#FFD700;#FFA500" dur="10s" repeatCount="indefinite" />
  </path>
  
  <!-- Mountains -->
  <path d="M110,200 L150,150 L170,170 L200,120 L230,170 L250,150 L290,200 Z" fill="#0A3A5A" />
  <path d="M130,200 L150,170 L170,190 L200,150 L230,190 L260,160 L270,200 Z" fill="#4CAF50" />
  
  <!-- Water -->
  <path d="M110,200 L290,200 L290,250 C270,240 250,260 230,250 C210,240 190,260 170,250 C150,240 130,260 110,250 Z" fill="#0096C7" />
  
  <!-- Palm Tree -->
  <path d="M260,120 C260,120 270,110 280,115 C290,120 285,125 285,125 C285,125 295,120 300,125 C305,130 290,135 290,135 C290,135 300,135 300,140 C300,145 290,142 285,145 C280,148 290,160 290,160 L280,150 C280,150 275,160 270,145 C265,130 260,120 260,120 Z" fill="#0A3A5A" />
  
  <!-- Location Indicator -->
  <circle cx="200" cy="120" r="30" fill="#0A3A5A" />
  <circle cx="200" cy="120" r="20" fill="white" />
  <circle cx="200" cy="120" r="10" fill="#0A3A5A" />
</svg>
